<svg width="50" height="38" viewBox="0 0 50 38" fill="none" xmlns="http://www.w3.org/2000/svg"><path d="M41.963 3.437A39.627 39.627 0 0 0 32 .333a.21.21 0 0 0-.163.07c-.42.77-.91 1.774-1.237 2.544a37.543 37.543 0 0 0-11.2 0A23.404 23.404 0 0 0 18.14.403c-.023-.046-.093-.07-.163-.07a39.927 39.927 0 0 0-9.964 3.104c-.023 0-.046.023-.07.046C1.597 12.98-.153 22.22.71 31.367c0 .046.023.093.07.116 4.2 3.08 8.237 4.947 12.227 6.184.07.023.14 0 .163-.047a30.074 30.074 0 0 0 2.497-4.06c.046-.093 0-.187-.094-.21a28.715 28.715 0 0 1-3.826-1.82c-.094-.047-.094-.187-.024-.257.257-.186.514-.396.77-.583a.144.144 0 0 1 .164-.023c8.026 3.663 16.683 3.663 24.616 0a.144.144 0 0 1 .164.023c.256.21.513.397.77.607.093.07.093.21-.024.256-1.213.724-2.496 1.307-3.826 1.82-.094.024-.117.14-.094.21a35.693 35.693 0 0 0 2.497 4.06c.07.024.14.047.21.024 4.013-1.237 8.05-3.104 12.25-6.184a.128.128 0 0 0 .07-.116c1.027-10.57-1.703-19.74-7.233-27.884-.024-.023-.047-.046-.094-.046ZM16.88 25.79c-2.403 0-4.41-2.217-4.41-4.947s1.96-4.946 4.41-4.946c2.473 0 4.433 2.24 4.41 4.946 0 2.73-1.96 4.947-4.41 4.947Zm16.263 0c-2.403 0-4.41-2.217-4.41-4.947s1.96-4.946 4.41-4.946c2.474 0 4.434 2.24 4.41 4.946 0 2.73-1.936 4.947-4.41 4.947Z" fill="#F56E22"/></svg>