<svg width="232" height="56" viewBox="0 0 232 56" fill="none" xmlns="http://www.w3.org/2000/svg"><path d="m34.894 14.578-7.633 37 10.609-7.901L44.863 7.3l-9.969 7.277ZM12.967 15.613l17.307 15.365-1.93 9.517L.629 15.92l12.338-.306ZM15.35 16.15 34.94 2.53l8.85 3.952-21.713 15.71-6.725-6.042Z" fill="#F56E22"/><path fill-rule="evenodd" clip-rule="evenodd" d="m60.66 17.008-4.127 22.47h6.534l1.261-6.191h6.649c1.702.27 2.345.838 2.637 2.98l-1.605 7.796 4.7 10.202 3.439-17.768c1.012 2.151 1.837 2.846 3.898 2.98h27.398c2.063 0 4.069-.787 5.159-4.585.542-3.123.119-4.519-2.752-5.961-2.068-.712-3.265-.988-5.502-1.147l.229-1.375h10.203c-.841 3.345-1.193 5.206-1.376 8.483 0 2.407 1.834 4.47 4.242 4.585 2.407.115 11.119 0 11.119 0l1.261-6.42 6.535.115c2.178.115 2.727 1.305 2.407 4.012l-1.376 6.993 4.586 10.203 3.324-17.196.344-2.063c1.034 2.828 2.293 4.47 4.471 4.356 0 0 20.75.115 23.042 0 2.293-.114 3.996-1.082 5.159-5.044.566 3.746 1.719 5.044 4.7 5.044h7.451c2.408 0 5.122-1.562 6.306-7.222l1.031-5.044c.459-2.751-1.49-5.846-4.471-5.846h-7.566c-2.407 0-5.388 2.063-6.075 4.7l-1.376 8.253c.191-1.184.069-3.851-1.949-5.043-2.018-1.193-4.738-1.49-5.846-1.49l.114-1.377h8.139l1.032-4.929s-8.598 0-11.005.115c-2.407.114-4.356 1.72-4.7 4.356-.486-3.077-1.949-4.47-4.586-4.47h-7.107c-2.064.114-4.294 1.89-5.273 4.928-.88 2.87-1.209 4.476-1.491 7.337-.732-1.435-1.295-2.148-2.866-3.095 2.951-2.066 4.239-3.476 4.586-7.337.115-3.553-2.407-6.19-5.503-6.19h-15.82l-.917 4.47h-3.439l.917-4.47h-6.419l-.917 4.47h-12.954c-1.583.01-2.343.395-3.554 1.606l.229-1.605h-6.993l-2.522 13.069H87.6c-.917-.115-1.075-.965-.802-2.637l2.178-10.432h-6.42l-.344 1.146c-.519-3.815-2.407-5.617-5.158-5.617l-16.393-.115Zm139.513 22.47h5.961l2.064-11.12c.626-1.285 1.146-2.064 3.095-1.95h8.598l-1.147 6.65c-.458 3.324 1.261 6.305 4.471 6.42h4.127l.917-5.045c-2.712.056-3.898-.573-3.554-2.751.344-2.178 1.147-5.273 1.147-5.273h4.471l.687-4.93h-4.012l.917-4.356-6.419-.115-.803 4.471h-11.12c-3.324.115-6.305 3.21-6.763 5.044l-2.637 12.954ZM66.621 22.051l-1.146 6.19 8.139-1.49c1.363-.479 1.675-.991 1.72-2.178V23.2c-.196-.756-.459-1.147-1.49-1.147H66.62Zm14.788 4.242-1.26 6.878c-.821-1.07-1.375-1.63-2.637-2.522l.208-.133c1.702-1.086 2.718-1.735 3.69-4.223Zm20.635 2.98c.004 0 .006.006.007.017l-.007-.017Zm.007.017c.924 2.282 3.788 3.527 8.132 3.766v1.835h-9.285c.404-1.8 1.175-5.33 1.153-5.601Zm22.806-2.768-1.032 5.274c-.299 1.294-.046 1.768.917 2.292l2.064.917 1.49-8.483h-3.439Zm10.088 1.834 1.261-6.305h7.222c1.032 0 1.297.62 1.376 1.376v.917c-.04 1.174-.253 1.714-1.261 2.293l-8.598 1.72Zm27.513.803h-5.961c.364-1.586.802-2.98 2.178-2.98h3.21c.802 0 1.048.332 1.031 1.375-.096.915-.203 1.248-.458 1.605Zm-6.535 3.21h11.693l.803-3.554c1.395 2.847 2.914 3.888 7.681 4.182v1.664h-18.686c-1.249.02-1.465-.374-1.491-1.375v-.917Zm38.633-5.961h-3.21c-1.261 0-1.816.922-2.178 2.521l-.688 4.242c-.114.917.264 1.403 1.147 1.49h3.554c1.146 0 1.834-1.146 2.063-2.75l.688-4.013c.114-.917-.374-1.387-1.376-1.49Z" fill="#fff"/></svg>