<?xml version="1.0" encoding="utf-8"?><svg viewBox="0 0 32 35" xmlns="http://www.w3.org/2000/svg" xmlns:xlink="http://www.w3.org/1999/xlink"><style>:root>svg{display:none}:root>svg:target{display:block}</style><svg fill="none" viewBox="0 0 25 24" id="arrow" xmlns="http://www.w3.org/2000/svg"><path d="m7.5 10 4.5 4 4.5-4" stroke="var(--_arrow-stroke)" stroke-opacity="var(--_arrow-stroke-opacity)" stroke-width="1.5" stroke-linecap="round"/></svg><svg fill="none" viewBox="0 0 24 24" id="bell" xmlns="http://www.w3.org/2000/svg"><path d="M19.818 16.15c-.462-.828-1.15-3.17-1.15-6.227a7.06 7.06 0 0 0-1.953-4.895A6.546 6.546 0 0 0 12 3c-1.768 0-3.464.73-4.714 2.028a7.06 7.06 0 0 0-1.953 4.895c0 3.059-.689 5.399-1.151 6.226a1.426 1.426 0 0 0-.005 1.387c.117.211.285.387.488.509s.433.186.668.186h3.401a3.487 3.487 0 0 0 1.158 1.989c.595.505 1.34.78 2.108.78.769 0 1.514-.276 2.109-.78a3.487 3.487 0 0 0 1.158-1.989h3.401c.235 0 .465-.064.668-.187a1.36 1.36 0 0 0 .487-.508 1.426 1.426 0 0 0-.005-1.387ZM12 19.615a1.95 1.95 0 0 1-1.154-.381 2.07 2.07 0 0 1-.73-1.004h3.77a2.07 2.07 0 0 1-.731 1.004 1.95 1.95 0 0 1-1.155.381Z" fill="#212327"/><circle cx="18" cy="6" r="5" fill="#FF511A" stroke="#fff" stroke-width="2"/></svg><svg fill="none" viewBox="0 0 19 20" id="developed" xmlns="http://www.w3.org/2000/svg"><path d="M.5 13.985c-.045-.124.11-.22.197-.122 1.072 1.202 4.477 4.506 8.983 3.78 2.063-.332 3.983-1.358 5.157-3.145.633-.963 1.094-2.056.977-3.23a5.54 5.54 0 0 0-.63-2.072c-.625-1.16-1.762-2.206-2.997-2.66 0 0-1.543-.57-2.064.527-.522 1.097.44 1.807.821 1.93.32.102 1.062.018 1.458-.574a.139.139 0 0 1 .254.067c.053.707-.048 2.06-1.372 2.984-1.864 1.3-3.527.386-3.988.101C5.73 10.607 5.2 8.286 6.39 6.823c.043-.053-.011-.129-.074-.105A5.082 5.082 0 0 0 3.768 8.95c-.065.115-.237.077-.252-.055-.09-.838-.005-2.843 2.376-4.633 3.103-2.333 7.306-.674 7.316-.67.009.002 3.39 1.06 5.05 4.772 1.664 3.716-1.062 7.513-2.284 8.711-1.223 1.198-3.788 3.432-7.977 2.823-3.854-.56-6.708-3.719-7.497-5.912Z" fill="#fff" fill-opacity=".4"/><path d="M14.927 10.7a.122.122 0 0 1 .224.052c.13 1.032.152 4.168-3.966 5.633-3.687 1.31-8.716-.375-10.445-4.072C.25 11.27.018 10.11 0 8.958-.024 7.18.447 5.649 1.48 4.227 2.556 2.743 4.015 1.577 5.653.789c3.03-1.459 7.103-.824 9.668 1.322 1.094.917 2.038 2.157 2.6 3.476.054.127-.102.236-.199.14-1.046-1.05-3.954-3.598-7.52-3.598-4.489 0-6.553 3.37-6.553 3.37s-2.445 3.656.922 6.682c3.262 2.931 8.518 1.44 10.356-1.48Z" fill="#fff" fill-opacity=".4"/></svg><svg fill="none" viewBox="0 0 32 35" id="person" xmlns="http://www.w3.org/2000/svg"><circle cx="16" cy="8" r="8" fill="#fff"/><circle cx="16" cy="31" r="16" fill="#fff"/></svg></svg>